<?xml version="1.0" encoding="UTF-8" standalone="no"?>
<svg
   xmlns:dc="http://purl.org/dc/elements/1.1/"
   xmlns:cc="http://creativecommons.org/ns#"
   xmlns:rdf="http://www.w3.org/1999/02/22-rdf-syntax-ns#"
   xmlns:svg="http://www.w3.org/2000/svg"
   xmlns="http://www.w3.org/2000/svg"
   xmlns:sodipodi="http://sodipodi.sourceforge.net/DTD/sodipodi-0.dtd"
   xmlns:inkscape="http://www.inkscape.org/namespaces/inkscape"
   version="1.1"
   id="Layer_1"
   x="0px"
   y="0px"
   width="129"
   height="61"
   viewBox="0 0 129 61"
   xml:space="preserve"
   sodipodi:docname="cdi-original.svg"
   inkscape:version="0.92.2 (5c3e80d, 2017-08-06)"><metadata
     id="metadata70"><rdf:RDF><cc:Work
         rdf:about=""><dc:format>image/svg+xml</dc:format><dc:type
           rdf:resource="http://purl.org/dc/dcmitype/StillImage" /><dc:title></dc:title></cc:Work></rdf:RDF></metadata><defs
     id="defs68" /><sodipodi:namedview
     pagecolor="#ffffff"
     bordercolor="#666666"
     borderopacity="1"
     objecttolerance="10"
     gridtolerance="10"
     guidetolerance="10"
     inkscape:pageopacity="0"
     inkscape:pageshadow="2"
     inkscape:window-width="1366"
     inkscape:window-height="705"
     id="namedview66"
     showgrid="false"
     inkscape:zoom="4.9980813"
     inkscape:cx="75.516077"
     inkscape:cy="20.493804"
     inkscape:window-x="-8"
     inkscape:window-y="-8"
     inkscape:window-maximized="1"
     inkscape:current-layer="XMLID_4141_" /><style
     type="text/css"
     id="style2">.st0{fill:#008444;} .st1{fill:#D02339;} .st2{fill:#6A6D76;}</style><g
     id="XMLID_4141_"
     transform="translate(0,-67)"><path
       id="XMLID_4406_"
       class="st2"
       d="m 30.420977,121.02685 c -12.880001,0 -23.3500013,-7.04 -23.3500013,-22.140002 0,-14.02 9.4400003,-22.49 24.1400013,-22.49 5.779996,0 11.969996,1.66 14.769996,1.66 0.11,0.86 0.34,2.58 0.34,3.72 0,3.2 -0.58,8.53 -0.86,9.73 h -1.82 c -0.06,-8.7 -4.81,-12.070001 -12.539996,-12.070001 -10.630001,0 -16.820001,7.550001 -16.820001,19.280001 0,11.960002 7.33,19.110002 17.110001,19.110002 7.669996,0 11.449996,-4.35 12.709996,-9.56 h 1.65 c 0,2.35 -0.68,7.04 -1.82,9.67 -3.1,1.83 -7.79,3.09 -13.509996,3.09 z"
       inkscape:connector-curvature="0"
       style="fill:#6a6d76" /><path
       id="XMLID_4403_"
       class="st2"
       d="m 53.420973,118.73685 2.91,-0.28 c 2.63,-0.23 3.02,-1.55 3.02,-10.24 V 89.266848 c 0,-8.75 -0.45,-9.950001 -3.02,-10.190001 l -2.91,-0.279999 v -1.43 c 8.92,-0.06 15.28,-0.23 20.54,-0.23 12.87,0 24.769996,5.38 24.769996,20.6 0,12.990002 -9.789996,22.430002 -26.209996,22.430002 h -19.1 z m 12.41,-6.98 c 0,4.53 1.38,5.61 6.41,5.61 10.7,0 19.169996,-6.3 19.169996,-18.830002 0,-12.24 -6.919996,-18.42 -18.189996,-18.42 -2,0 -5.04,0.17 -7.38,0.75 v 30.890002 z"
       inkscape:connector-curvature="0"
       style="fill:#6a6d76" /><path
       id="XMLID_4401_"
       class="st2"
       d="m 103.82097,120.16685 v -1.43 l 2.92,-0.28 c 2.63,-0.28 3.03,-1.55 3.03,-10.24 V 89.266848 c 0,-8.75 -0.46,-9.950001 -3.03,-10.24 l -2.92,-0.28 v -1.49 h 18.37 v 1.49 l -2.92,0.28 c -2.63,0.289999 -3.03,1.49 -3.03,10.24 v 18.940002 c 0,8.69 0.4,9.96 3.03,10.24 l 2.92,0.28 v 1.43 h -18.37 z"
       inkscape:connector-curvature="0"
       style="fill:#6a6d76" /></g></svg>