<svg version="1.1" id="Layer_1" xmlns="http://www.w3.org/2000/svg" x="0px" y="0px" width="395px" height="128px" viewBox="0 0 395 128" xml:space="preserve"><style type="text/css">.st0{fill:#008444;} .st1{fill:#D02339;} .st2{fill:#6A6D76;}</style><g id="XMLID_4141_"><path id="XMLID_4410_" class="st0" d="M190.7 61.41c-27.02 0-48.92-.58-48.92-1.29 0-.72 21.9-1.29 48.92-1.29h67.86v2.58H190.7z"/><path id="XMLID_4409_" class="st1" d="M345.27 58.83c27.06 0 48.99.58 48.99 1.29 0 .72-21.93 1.29-48.99 1.29h-67.93v-2.58h67.93z"/><path id="XMLID_4406_" class="st2" d="M233.58 44.63c-12.88 0-23.35-7.04-23.35-22.14C210.23 8.47 219.67 0 234.37 0c5.78 0 11.97 1.66 14.77 1.66.11.86.34 2.58.34 3.72 0 3.2-.58 8.53-.86 9.73h-1.82c-.06-8.7-4.81-12.07-12.54-12.07-10.63 0-16.82 7.55-16.82 19.28 0 11.96 7.33 19.11 17.11 19.11 7.67 0 11.45-4.35 12.71-9.56h1.65c0 2.35-.68 7.04-1.82 9.67-3.1 1.83-7.79 3.09-13.51 3.09z"/><path id="XMLID_4403_" class="st2" d="M256.58 42.34l2.91-.28c2.63-.23 3.02-1.55 3.02-10.24V12.87c0-8.75-.45-9.95-3.02-10.19l-2.91-.28V.97c8.92-.06 15.28-.23 20.54-.23 12.87 0 24.77 5.38 24.77 20.6 0 12.99-9.79 22.43-26.21 22.43h-19.1v-1.43zm12.41-6.98c0 4.53 1.38 5.61 6.41 5.61 10.7 0 19.17-6.3 19.17-18.83 0-12.24-6.92-18.42-18.19-18.42-2 0-5.04.17-7.38.75v30.89z"/><path id="XMLID_4401_" class="st2" d="M306.98 43.77v-1.43l2.92-.28c2.63-.28 3.03-1.55 3.03-10.24V12.87c0-8.75-.46-9.95-3.03-10.24l-2.92-.28V.86h18.37v1.49l-2.92.28c-2.63.29-3.03 1.49-3.03 10.24v18.94c0 8.69.4 9.96 3.03 10.24l2.92.28v1.43h-18.37z"/><path id="XMLID_4398_" class="st2" d="M181.67 87.24c-3.38 0-6.12-1.84-6.12-5.8 0-3.67 2.48-5.89 6.32-5.89 1.52 0 3.14.43 3.87.43.03.22.09.68.09.98 0 .84-.15 2.23-.22 2.55h-.48c-.02-2.28-1.26-3.16-3.28-3.16-2.79 0-4.41 1.98-4.41 5.05 0 3.14 1.92 5.01 4.49 5.01 2 0 2.99-1.14 3.33-2.5h.43c0 .61-.18 1.84-.48 2.53-.81.47-2.04.8-3.54.8z"/><path id="XMLID_4395_" class="st2" d="M187.85 81.48c0-3.64 2.62-5.94 6.01-5.94 3.55 0 5.88 2.37 5.88 5.77 0 3.63-2.64 5.92-6 5.92-3.56.01-5.89-2.33-5.89-5.75zm9.97-.07c0-2.57-1.26-5.07-4.17-5.07-2.64 0-3.91 2.13-3.91 4.96 0 2.65 1.33 5.11 4.24 5.11 2.65 0 3.84-2.28 3.84-5z"/><path id="XMLID_4393_" class="st2" d="M201.08 87.01v-.37l.72-.08c.67-.07.85-.4.98-1.54.07-.71.6-5.99.77-7.87-.33-.57-.64-.88-.99-.93l-.64-.07v-.37h2.5c.54 0 2.21 3.25 4.11 8.33h.09c.62-1.49 2.69-6.66 3.1-8.33h3.35v.37l-.66.07c-.54.06-.77.36-.77.96 0 .77.54 7.06.63 7.84.12 1.02.24 1.5.82 1.54l.76.08v.37h-4.73v-.37l.68-.08c.69-.06.8-.24.8-.84 0-.73-.36-4.76-.6-7.37h-.11c-.97 2.46-2.32 5.76-3.24 8.26-.17.01-.7.07-.88.07-1.31-3.67-2.61-6.51-3.39-8.21h-.1c-.24 2.54-.52 6.51-.52 7.24 0 .69.11.81.88.87l.66.06v.37h-4.22z"/><path id="XMLID_4391_" class="st2" d="M217.05 87.01v-.37l.77-.08c.69-.07.79-.4.79-2.68v-4.96c0-2.29-.12-2.61-.79-2.68l-.77-.07v-.39h4.81v.39l-.77.07c-.69.08-.8.39-.8 2.68v4.96c0 2.28.11 2.61.8 2.68l.77.08v.37h-4.81z"/><path id="XMLID_4389_" class="st2" d="M223.62 86.87c-.1-.57-.19-1.86-.19-2.64h.41c.36 1.49 1.31 2.27 2.76 2.27 1.12 0 2.1-.63 2.1-1.76 0-.96-.54-1.56-1.41-2.18l-1.29-.93c-1.23-.9-2.31-1.83-2.31-3.16 0-1.84 1.5-2.91 3.32-2.91 1.31 0 2.12.37 2.97.4 0 .87-.09 1.95-.29 2.79h-.43c-.09-1.63-.92-2.46-2.21-2.46-1 0-1.81.63-1.81 1.6 0 .9.66 1.47 1.7 2.17l1.12.78c1.72 1.2 2.28 2.07 2.28 3.25 0 2.07-1.86 3.15-3.81 3.15-1.11 0-2.19-.36-2.91-.37z"/><path id="XMLID_4387_" class="st2" d="M232.06 87.01v-.37l.77-.08c.69-.07.79-.4.79-2.68v-4.96c0-2.29-.12-2.61-.79-2.68l-.77-.07v-.39h4.81v.39l-.77.07c-.69.08-.79.39-.79 2.68v4.96c0 2.28.11 2.61.79 2.68l.77.08v.37h-4.81z"/><path id="XMLID_4383_" class="st2" d="M238.28 81.48c0-3.64 2.63-5.94 6.02-5.94 3.55 0 5.88 2.37 5.88 5.77 0 3.63-2.64 5.92-5.99 5.92-3.58.01-5.91-2.33-5.91-5.75zm9.97-.07c0-2.57-1.26-5.07-4.16-5.07-2.64 0-3.91 2.13-3.91 4.96 0 2.65 1.32 5.11 4.24 5.11 2.63 0 3.83-2.28 3.83-5zm-5.47-7.06c.93-.39 2.44-1.2 3.07-1.8h.06c.26.17.67.69.67.96 0 .56-2.7 1.11-3.81 1.14v-.3z"/><path id="XMLID_4381_" class="st2" d="M254.17 77.98l-.12.03.03 5.87c.01 2.42.17 2.63.9 2.68l.8.08v.37h-4.35v-.37l.77-.08c.75-.06.89-.31.9-2.68l.03-6.28c0-.9-.45-1.29-1.26-1.38l-.51-.06v-.39h2.79c.26 0 .6.3.97.7 1.74 1.89 4.38 4.97 6.37 7.4l.09-.03-.06-5.32c-.01-1.96-.2-2.23-.89-2.29l-.73-.07v-.39h4.16v.39l-.66.07c-.76.08-.87.46-.87 2.68v8.11c-.15.06-.46.12-.66.13-2.22-2.91-4.57-5.62-7.7-9.17z"/><path id="XMLID_4379_" class="st2" d="M272.42 77.98l-.1.03.03 5.87c.02 2.42.17 2.63.9 2.68l.79.08v.37h-4.35v-.37l.77-.08c.74-.06.88-.31.9-2.68l.03-6.28c0-.9-.45-1.29-1.26-1.38l-.51-.06v-.39h2.79c.26 0 .59.3.98.7 1.73 1.89 4.37 4.97 6.37 7.4l.09-.03-.06-5.32c-.01-1.96-.2-2.23-.88-2.29l-.73-.07v-.39h4.17v.39l-.66.07c-.77.08-.88.46-.88 2.68v8.11c-.15.06-.46.12-.66.13-2.24-2.91-4.59-5.62-7.73-9.17z"/><path id="XMLID_4376_" class="st2" d="M282.63 87.01v-.34c.94-.2 1.27-.39 1.76-1.55l4.06-9.43c.14-.05.28-.07.36-.07.67 1.75 3.63 9.28 4.23 10.27.36.59.67.67 1.19.73v.39h-4.83v-.37l.61-.03c.7-.05.93-.2.93-.62 0-.28-.13-.75-.45-1.57l-.5-1.3c-.41 0-3.39.03-3.72.03l-.39.96c-.24.6-.58 1.53-.58 1.86 0 .43.33.55 1.45.68v.37h-4.12zm5.58-8.38h-.1c-.49 1.16-1.09 2.61-1.55 3.75l3.14.03-1.49-3.78z"/><path id="XMLID_4374_" class="st2" d="M301.09 87.24c-3.37 0-6.11-1.84-6.11-5.8 0-3.67 2.48-5.89 6.33-5.89 1.51 0 3.13.43 3.86.43.03.22.09.68.09.98 0 .84-.15 2.23-.22 2.55h-.49c-.01-2.28-1.26-3.16-3.28-3.16-2.79 0-4.41 1.98-4.41 5.05 0 3.14 1.92 5.01 4.48 5.01 2.01 0 3-1.14 3.32-2.5h.44c0 .61-.18 1.84-.48 2.53-.8.47-2.03.8-3.53.8z"/><path id="XMLID_4372_" class="st2" d="M307.13 87.01v-.37l.77-.08c.69-.07.79-.4.79-2.68v-4.96c0-2.29-.12-2.61-.79-2.68l-.77-.07v-.39h4.81v.39l-.77.07c-.7.08-.79.39-.79 2.68v4.96c0 2.28.1 2.61.79 2.68l.77.08v.37h-4.81z"/><path id="XMLID_4369_" class="st2" d="M313.36 81.48c0-3.64 2.62-5.94 6.01-5.94 3.55 0 5.88 2.37 5.88 5.77 0 3.63-2.64 5.92-6 5.92-3.57.01-5.89-2.33-5.89-5.75zm9.97-.07c0-2.57-1.26-5.07-4.17-5.07-2.64 0-3.92 2.13-3.92 4.96 0 2.65 1.34 5.11 4.24 5.11 2.64 0 3.85-2.28 3.85-5z"/><path id="XMLID_4367_" class="st2" d="M329.25 77.98l-.12.03.04 5.87c.01 2.42.16 2.63.9 2.68l.79.08v.37h-4.35v-.37l.76-.08c.75-.06.89-.31.9-2.68l.03-6.28c0-.9-.45-1.29-1.26-1.38l-.51-.06v-.39h2.79c.26 0 .6.3.97.7 1.74 1.89 4.38 4.97 6.37 7.4l.08-.03-.05-5.32c-.01-1.96-.19-2.23-.89-2.29l-.73-.07v-.39h4.17v.39l-.66.07c-.77.08-.88.46-.88 2.68v8.11c-.15.06-.47.12-.66.13-2.21-2.91-4.57-5.62-7.69-9.17z"/><path id="XMLID_4364_" class="st2" d="M339.44 87.01v-.34c.93-.2 1.27-.39 1.76-1.55l4.06-9.43c.14-.05.27-.07.36-.07.68 1.75 3.63 9.28 4.23 10.27.36.59.67.67 1.2.73v.39h-4.84v-.37l.61-.03c.7-.05.93-.2.93-.62 0-.28-.13-.75-.45-1.57l-.49-1.3c-.43 0-3.39.03-3.74.03l-.39.96c-.24.6-.59 1.53-.59 1.86 0 .43.34.55 1.46.68v.37h-4.11zm5.58-8.38h-.08c-.5 1.16-1.1 2.61-1.56 3.75l3.15.03-1.51-3.78z"/><path id="XMLID_4362_" class="st2" d="M352.09 86.64l.77-.08c.67-.06.78-.4.78-2.68v-4.96c0-2.29-.11-2.62-.78-2.68l-.77-.07v-.39h4.84v.39l-.8.07c-.69.06-.78.39-.78 2.68v4.81c0 2.37.12 2.58 1.05 2.58h1.27c1.16 0 1.78-.87 2.15-2.26h.42c0 .72-.2 2.2-.42 2.97h-7.73v-.38z"/><path id="XMLID_4359_" class="st2" d="M176.29 107.39v-.37l.76-.07c.69-.06.79-.41.79-2.69V99.3c0-2.26-.12-2.58-.79-2.64l-.76-.07v-.37c1.18-.06 3.4-.09 4.27-.09 2.74 0 4.09 1.14 4.09 3.03 0 2.21-2.03 3.52-4.21 3.52-.33 0-.61-.02-.9-.05v1.63c0 2.28.11 2.63.79 2.69l.88.07v.37h-4.92zm6.58-7.97c0-1.51-.84-2.52-2.14-2.52-.44 0-.95.11-1.18.18v4.87c.28.03.56.03.84.03 1.67 0 2.48-.94 2.48-2.56z"/><path id="XMLID_4356_" class="st2" d="M184.5 107.39v-.34c.93-.2 1.26-.39 1.75-1.55l4.06-9.43c.14-.05.27-.08.36-.08.67 1.76 3.62 9.28 4.22 10.27.36.58.67.68 1.2.74v.39h-4.85v-.37l.62-.03c.7-.05.93-.2.93-.62 0-.28-.14-.75-.45-1.57l-.49-1.31c-.42 0-3.39.03-3.74.03l-.39.96c-.24.6-.58 1.53-.58 1.86 0 .43.33.55 1.45.67v.37h-4.09zm5.57-8.37h-.09c-.49 1.15-1.1 2.61-1.56 3.75l3.15.03-1.5-3.78z"/><path id="XMLID_4353_" class="st2" d="M197.14 107.39v-.37l.77-.07c.69-.06.8-.41.8-2.69V99.3c0-2.26-.12-2.58-.8-2.64l-.77-.07v-.37c1.18-.06 3.4-.09 4.27-.09 2.76 0 4.05 1.05 4.05 2.89 0 1.53-1.03 2.46-2.01 2.98 1.56 2.91 2.65 4.45 3.41 4.81.32.15.55.2.85.2v.39c-1.31.12-1.96.17-2.24.17-.25 0-.46-.06-.67-.21-.67-.53-1.53-2.1-2.43-3.91-.33-.69-.49-.89-1.03-.89h-.94v1.76c0 2.28.11 2.58.8 2.64l.88.07v.37h-4.94zm4.96-5.51c.88 0 1.58-1.11 1.58-2.49 0-1.51-.81-2.49-2.1-2.49-.44 0-.95.11-1.18.18v4.79h1.7z"/><path id="XMLID_4350_" class="st2" d="M208.01 107.39v-.34c.93-.2 1.26-.39 1.75-1.55l4.06-9.43c.14-.05.27-.08.36-.08.67 1.76 3.62 9.28 4.22 10.27.36.58.68.68 1.2.74v.39h-4.84v-.37l.62-.03c.7-.05.93-.2.93-.62 0-.28-.14-.75-.45-1.57l-.49-1.31c-.43 0-3.39.03-3.74.03l-.39.96c-.24.6-.59 1.53-.59 1.86 0 .43.32.55 1.45.67v.37h-4.09zm5.57-8.37h-.09c-.5 1.15-1.1 2.61-1.56 3.75l3.15.03-1.5-3.78z"/><path id="XMLID_4348_" class="st2" d="M225.15 107.39v-.37l.77-.07c.67-.06.79-.41.79-2.69V99.3c0-2.29-.12-2.62-.79-2.68l-.77-.07v-.39h7.36c.03.23.05.46.05.69 0 .71-.1 1.46-.23 2.03h-.39c-.09-1.31-.39-1.95-1.68-1.95-.63 0-1.42.09-1.85.17v4.25h.82c1.64 0 1.87-.12 2.07-1.02h.39l-.13 3.21h-.39l-.1-.62c-.13-.69-.39-.86-1.87-.86h-.78v2.18c0 2.31.2 2.46 1.22 2.46h.83c1.31 0 1.82-.68 2.18-1.93h.4c-.01.81-.18 1.89-.4 2.64h-7.5z"/><path id="XMLID_4346_" class="st2" d="M234.6 107.02l.77-.07c.67-.06.79-.41.79-2.69V99.3c0-2.29-.12-2.62-.79-2.68l-.77-.07v-.39h4.84v.39l-.79.07c-.69.06-.79.39-.79 2.68v4.81c0 2.37.12 2.58 1.05 2.58h1.27c1.15 0 1.79-.87 2.15-2.26h.43c0 .72-.2 2.2-.43 2.96h-7.73v-.37z"/><path id="XMLID_4343_" class="st2" d="M248.67 107.02l.77-.07c.69-.06.79-.41.79-2.69V99.3c0-2.29-.12-2.6-.79-2.67l-.77-.07v-.37c2.34-.01 4-.06 5.38-.06 3.37 0 6.49 1.4 6.49 5.4 0 3.4-2.56 5.87-6.86 5.87h-5.01v-.38zm3.26-1.83c0 1.19.36 1.47 1.68 1.47 2.8 0 5.02-1.65 5.02-4.93 0-3.21-1.81-4.83-4.76-4.83-.52 0-1.32.05-1.93.2v8.09z"/><path id="XMLID_4341_" class="st2" d="M261.89 107.39v-.37l.77-.07c.67-.06.79-.41.79-2.69V99.3c0-2.29-.12-2.62-.79-2.68l-.77-.07v-.39h7.36c.03.23.05.46.05.69 0 .71-.09 1.46-.22 2.03h-.39c-.09-1.31-.38-1.95-1.68-1.95-.63 0-1.43.09-1.86.17v4.25h.82c1.64 0 1.88-.12 2.07-1.02h.39l-.13 3.21h-.4l-.1-.62c-.13-.69-.39-.86-1.87-.86h-.78v2.18c0 2.31.21 2.46 1.22 2.46h.83c1.32 0 1.81-.68 2.18-1.93h.41c-.02.81-.18 1.89-.41 2.64h-7.49z"/><path id="XMLID_4339_" class="st2" d="M271.54 107.24c-.12-.56-.2-1.86-.2-2.64h.43c.36 1.49 1.3 2.26 2.75 2.26 1.13 0 2.1-.63 2.1-1.76 0-.96-.54-1.55-1.41-2.19l-1.29-.93c-1.23-.9-2.31-1.83-2.31-3.16 0-1.85 1.5-2.91 3.32-2.91 1.3 0 2.13.37 2.96.41 0 .87-.09 1.95-.29 2.79h-.43c-.09-1.64-.91-2.46-2.21-2.46-1 0-1.81.63-1.81 1.61 0 .89.66 1.47 1.7 2.17l1.12.79c1.72 1.2 2.28 2.06 2.28 3.25 0 2.07-1.86 3.14-3.81 3.14-1.1.01-2.18-.35-2.9-.37z"/><path id="XMLID_4336_" class="st2" d="M279.3 107.39v-.34c.93-.2 1.26-.39 1.76-1.55l4.06-9.43c.14-.05.27-.08.36-.08.67 1.76 3.63 9.28 4.23 10.27.36.58.67.68 1.2.74v.39h-4.84v-.37l.61-.03c.7-.05.93-.2.93-.62 0-.28-.13-.75-.45-1.57l-.49-1.31c-.42 0-3.39.03-3.74.03l-.39.96c-.24.6-.59 1.53-.59 1.86 0 .43.33.55 1.45.67v.37h-4.1zm5.58-8.37h-.09c-.49 1.15-1.1 2.61-1.55 3.75l3.14.03-1.5-3.78z"/><path id="XMLID_4333_" class="st2" d="M291.94 107.39v-.37l.77-.07c.69-.06.79-.41.79-2.69V99.3c0-2.26-.12-2.58-.79-2.64l-.77-.07v-.37c1.19-.06 3.4-.09 4.27-.09 2.76 0 4.05 1.05 4.05 2.89 0 1.53-1.03 2.46-2 2.98 1.55 2.91 2.65 4.45 3.41 4.81.32.15.55.2.85.2v.39c-1.31.12-1.97.17-2.23.17-.25 0-.47-.06-.68-.21-.67-.53-1.53-2.1-2.42-3.91-.33-.69-.49-.89-1.04-.89h-.94v1.76c0 2.28.1 2.58.8 2.64l.88.07v.37h-4.95zm4.97-5.51c.87 0 1.57-1.11 1.57-2.49 0-1.51-.81-2.49-2.1-2.49-.43 0-.94.11-1.18.18v4.79h1.71z"/><path id="XMLID_4330_" class="st2" d="M303.48 107.39v-.37l.77-.07c.69-.06.79-.41.79-2.69V99.3c0-2.26-.12-2.58-.79-2.64l-.77-.07v-.37c1.19-.06 3.41-.09 4.27-.09 2.76 0 4.05 1.05 4.05 2.89 0 1.53-1.04 2.46-2 2.98 1.55 2.91 2.65 4.45 3.41 4.81.32.15.54.2.84.2v.39c-1.31.12-1.97.17-2.23.17s-.47-.06-.67-.21c-.67-.53-1.53-2.1-2.43-3.91-.33-.69-.49-.89-1.04-.89h-.94v1.76c0 2.28.11 2.58.8 2.64l.88.07v.37h-4.94zm4.96-5.51c.87 0 1.58-1.11 1.58-2.49 0-1.51-.81-2.49-2.11-2.49-.43 0-.94.11-1.18.18v4.79h1.71z"/><path id="XMLID_4327_" class="st2" d="M314.42 101.86c0-3.64 2.63-5.94 6.01-5.94 3.56 0 5.88 2.37 5.88 5.77 0 3.62-2.64 5.92-5.99 5.92-3.58.01-5.9-2.33-5.9-5.75zm9.97-.07c0-2.57-1.26-5.07-4.16-5.07-2.64 0-3.92 2.13-3.92 4.96 0 2.65 1.33 5.11 4.24 5.11 2.64.01 3.84-2.27 3.84-5z"/><path id="XMLID_4325_" class="st2" d="M327.73 107.02l.77-.07c.67-.06.79-.41.79-2.69V99.3c0-2.29-.12-2.62-.79-2.68l-.77-.07v-.39h4.85v.39l-.8.07c-.69.06-.79.39-.79 2.68v4.81c0 2.37.11 2.58 1.04 2.58h1.28c1.15 0 1.78-.87 2.15-2.26h.41c0 .72-.19 2.2-.41 2.96h-7.74v-.37z"/><path id="XMLID_4323_" class="st2" d="M337.3 107.02l.76-.07c.68-.06.79-.41.79-2.69V99.3c0-2.29-.11-2.62-.79-2.68l-.76-.07v-.39h4.84v.39l-.8.07c-.68.06-.79.39-.79 2.68v4.81c0 2.37.11 2.58 1.05 2.58h1.28c1.15 0 1.78-.87 2.15-2.26h.42c0 .72-.2 2.2-.42 2.96h-7.73v-.37z"/><path id="XMLID_4320_" class="st2" d="M346.87 101.86c0-3.64 2.63-5.94 6.01-5.94 3.56 0 5.88 2.37 5.88 5.77 0 3.62-2.64 5.92-5.99 5.92-3.57.01-5.9-2.33-5.9-5.75zm9.96-.07c0-2.57-1.26-5.07-4.16-5.07-2.64 0-3.9 2.13-3.9 4.96 0 2.65 1.32 5.11 4.24 5.11 2.62.01 3.82-2.27 3.82-5z"/><path id="XMLID_4317_" class="st2" d="M149.2 127.4l.76-.07c.69-.06.79-.41.79-2.68v-4.96c0-2.29-.12-2.61-.79-2.67l-.76-.07v-.37c2.34-.02 4-.06 5.38-.06 3.38 0 6.49 1.41 6.49 5.4 0 3.4-2.56 5.87-6.86 5.87h-5.01v-.39zm3.25-1.83c0 1.19.36 1.47 1.68 1.47 2.81 0 5.02-1.65 5.02-4.93 0-3.21-1.81-4.82-4.76-4.82-.53 0-1.32.05-1.93.2v8.08z"/><path id="XMLID_4315_" class="st2" d="M162.42 127.78v-.37l.76-.07c.67-.06.79-.41.79-2.68v-4.96c0-2.29-.12-2.62-.79-2.68l-.76-.07v-.39h7.35c.04.22.05.46.05.69 0 .71-.09 1.46-.22 2.02h-.39c-.09-1.3-.39-1.95-1.68-1.95-.63 0-1.43.09-1.86.17v4.25h.82c1.64 0 1.88-.12 2.07-1.02h.39l-.14 3.21h-.39l-.1-.61c-.14-.69-.39-.86-1.88-.86h-.78v2.17c0 2.31.21 2.46 1.21 2.46h.84c1.31 0 1.81-.67 2.17-1.94h.41c-.02.81-.18 1.88-.41 2.64h-7.46z"/><path id="XMLID_4313_" class="st2" d="M176.37 127.4l.76-.07c.67-.06.79-.41.79-2.68v-4.96c0-2.29-.12-2.62-.79-2.68l-.76-.07v-.39h4.84v.39l-.79.07c-.69.06-.79.39-.79 2.68v4.81c0 2.37.12 2.58 1.05 2.58h1.27c1.16 0 1.78-.87 2.16-2.26h.42c0 .72-.19 2.2-.42 2.96h-7.74v-.38z"/><path id="XMLID_4310_" class="st2" d="M185.94 122.24c0-3.64 2.62-5.93 6.01-5.93 3.55 0 5.88 2.37 5.88 5.77 0 3.63-2.64 5.92-6 5.92-3.56 0-5.89-2.34-5.89-5.76zm9.97-.07c0-2.56-1.26-5.06-4.16-5.06-2.64 0-3.92 2.13-3.92 4.96 0 2.65 1.33 5.11 4.24 5.11 2.64 0 3.84-2.28 3.84-5.01z"/><path id="XMLID_4308_" class="st2" d="M199.9 127.63c-.1-.57-.2-1.86-.2-2.64h.42c.36 1.48 1.3 2.26 2.76 2.26 1.13 0 2.1-.63 2.1-1.75 0-.96-.54-1.57-1.4-2.19l-1.3-.93c-1.23-.9-2.31-1.83-2.31-3.16 0-1.84 1.5-2.91 3.32-2.91 1.3 0 2.12.37 2.97.4 0 .87-.09 1.95-.28 2.79h-.44c-.09-1.64-.92-2.46-2.21-2.46-1 0-1.81.63-1.81 1.6 0 .9.65 1.47 1.7 2.17l1.12.78c1.72 1.2 2.28 2.07 2.28 3.25 0 2.07-1.85 3.15-3.81 3.15-1.11.01-2.19-.35-2.91-.36z"/><path id="XMLID_4305_" class="st2" d="M212.83 127.78v-.37l.77-.07c.69-.06.79-.41.79-2.68v-4.96c0-2.26-.11-2.58-.79-2.64l-.77-.07v-.37c1.19-.06 3.4-.09 4.27-.09 2.75 0 4.09 1.14 4.09 3.03 0 2.21-2.02 3.52-4.21 3.52-.33 0-.61-.02-.9-.05v1.63c0 2.28.1 2.63.8 2.68l.88.07v.37h-4.93zm6.58-7.98c0-1.51-.83-2.52-2.14-2.52-.44 0-.95.11-1.19.18v4.87c.29.03.56.03.84.03 1.68 0 2.49-.94 2.49-2.56z"/><path id="XMLID_4303_" class="st2" d="M223.77 123.11v-3.45c0-2.37-.17-2.62-.78-2.69l-.68-.07v-.38h4.82v.38l-.8.07c-.74.06-.85.41-.85 2.69v3.18c0 3.03.97 4.35 3.16 4.35 2.19 0 3.04-1.6 3.04-4.25v-3.27c0-2.37-.11-2.62-.87-2.69l-.78-.07v-.38h4.38v.38l-.62.07c-.73.09-.85.41-.85 2.69v3.56c0 2.86-1.6 4.78-4.53 4.78-2.85-.01-4.64-1.63-4.64-4.9z"/><path id="XMLID_4230_" class="st2" d="M235.68 127.78v-.37l.76-.07c.68-.06.79-.41.79-2.68v-4.96c0-2.29-.12-2.62-.79-2.68l-.76-.07v-.39h7.36c.03.22.05.46.05.69 0 .71-.09 1.46-.22 2.02h-.39c-.09-1.3-.39-1.95-1.68-1.95-.63 0-1.43.09-1.86.17v4.25h.82c1.63 0 1.87-.12 2.07-1.02h.39l-.14 3.21h-.39l-.1-.61c-.14-.69-.39-.86-1.88-.86h-.78v2.17c0 2.31.21 2.46 1.21 2.46h.84c1.32 0 1.81-.67 2.18-1.94h.4c-.02.81-.18 1.88-.4 2.64h-7.48z"/><path id="XMLID_4226_" class="st2" d="M245.13 127.4l.76-.07c.67-.06.79-.41.79-2.68v-4.96c0-2.26-.12-2.58-.79-2.64l-.76-.07v-.37c1.17-.06 3.21-.09 4.23-.09 2.45 0 3.64.99 3.64 2.61 0 1.26-.96 2.15-2.08 2.47v.07c1.66.25 2.83 1.18 2.83 2.74 0 2.01-1.66 3.37-4.31 3.37h-4.31v-.38zm4.18-5.97c1.29-.04 1.85-.93 1.85-2.1 0-1.35-.66-2.06-1.69-2.06-.38 0-.81.08-1.08.18v4.02l.92-.04zm2.55 3.35c0-1.43-.83-2.65-2.39-2.68l-1.09-.03v2.55c0 2.29.23 2.46 1.24 2.46 1.22-.01 2.24-.73 2.24-2.3z"/><path id="XMLID_4224_" class="st2" d="M255.16 127.4l.77-.07c.67-.06.79-.41.79-2.68v-4.96c0-2.29-.13-2.62-.79-2.68l-.77-.07v-.39h4.85v.39l-.79.07c-.7.06-.8.39-.8 2.68v4.81c0 2.37.12 2.58 1.05 2.58h1.27c1.15 0 1.78-.87 2.15-2.26h.42c0 .72-.2 2.2-.42 2.96h-7.74v-.38z"/><path id="XMLID_4221_" class="st2" d="M264.74 122.24c0-3.64 2.62-5.93 6.02-5.93 3.55 0 5.87 2.37 5.87 5.77 0 3.63-2.64 5.92-6 5.92-3.57 0-5.89-2.34-5.89-5.76zm9.96-.07c0-2.56-1.26-5.06-4.17-5.06-2.64 0-3.91 2.13-3.91 4.96 0 2.65 1.34 5.11 4.24 5.11 2.65 0 3.84-2.28 3.84-5.01z"/><path id="XMLID_4219_" class="st2" d="M278.69 127.63c-.1-.57-.19-1.86-.19-2.64h.41c.37 1.48 1.31 2.26 2.76 2.26 1.12 0 2.1-.63 2.1-1.75 0-.96-.54-1.57-1.41-2.19l-1.28-.93c-1.23-.9-2.31-1.83-2.31-3.16 0-1.84 1.5-2.91 3.3-2.91 1.31 0 2.14.37 2.97.4 0 .87-.09 1.95-.28 2.79h-.43c-.09-1.64-.92-2.46-2.21-2.46-1 0-1.81.63-1.81 1.6 0 .9.66 1.47 1.69 2.17l1.13.78c1.72 1.2 2.27 2.07 2.27 3.25 0 2.07-1.85 3.15-3.81 3.15-1.09.01-2.18-.35-2.9-.36z"/><path id="XMLID_4217_" class="st2" d="M291.62 127.78v-.37l.77-.07c.69-.07.79-.41.79-2.68v-4.96c0-2.29-.12-2.61-.79-2.68l-.77-.07v-.39h4.81v.39l-.77.07c-.69.07-.79.39-.79 2.68v4.96c0 2.28.1 2.61.79 2.68l.77.07v.37h-4.81z"/><path id="XMLID_4215_" class="st2" d="M300.57 118.74l-.1.03.03 5.88c.01 2.41.16 2.63.9 2.68l.79.07v.37h-4.34v-.37l.75-.07c.75-.06.89-.31.91-2.68l.03-6.28c0-.9-.46-1.29-1.26-1.38l-.51-.06v-.39h2.79c.25 0 .6.3.97.71 1.74 1.88 4.38 4.97 6.37 7.4l.09-.03-.06-5.33c-.02-1.96-.2-2.23-.89-2.29l-.73-.07v-.39h4.16v.39l-.66.07c-.77.07-.87.47-.87 2.68v8.11c-.15.06-.47.12-.66.13-2.21-2.92-4.57-5.63-7.71-9.18z"/><path id="XMLID_4212_" class="st2" d="M311.75 127.4l.76-.07c.69-.06.79-.41.79-2.68v-4.96c0-2.29-.11-2.61-.79-2.67l-.76-.07v-.37c2.34-.02 4-.06 5.38-.06 3.37 0 6.49 1.41 6.49 5.4 0 3.4-2.57 5.87-6.86 5.87h-5.01v-.39zm3.26-1.83c0 1.19.36 1.47 1.68 1.47 2.8 0 5.02-1.65 5.02-4.93 0-3.21-1.81-4.82-4.77-4.82-.52 0-1.32.05-1.93.2v8.08z"/><path id="XMLID_4209_" class="st2" d="M324.97 127.78v-.37l.77-.07c.69-.07.79-.41.79-2.68v-4.96c0-2.29-.12-2.61-.79-2.68l-.77-.07v-.39h4.81v.39l-.77.07c-.69.07-.79.39-.79 2.68v4.96c0 2.28.1 2.61.79 2.68l.77.07v.37h-4.81zm.99-12.67c.93-.39 2.44-1.2 3.07-1.8h.06c.25.17.67.69.67.96 0 .56-2.7 1.11-3.81 1.14v-.3z"/><path id="XMLID_4207_" class="st2" d="M331.2 122.2c0-3.67 2.5-5.88 6.36-5.88 1.51 0 3.32.44 4.07.44.03.22.08.68.08.98 0 .84-.14 2.08-.23 2.39h-.45c-.14-2.13-1.53-3.03-3.51-3.03-2.75 0-4.43 1.84-4.43 5.05 0 3.16 2.02 5 4.51 5 1.55 0 2.4-.52 2.4-1.71 0-2.14-.14-2.46-.78-2.5l-.89-.06v-.39h4.68v.4l-.58.03c-.66.05-.78.43-.78 2.29 0 .73.03 1.39.09 1.85-.95.57-2.87.93-4.41.93-3.35.01-6.13-1.83-6.13-5.79z"/><path id="XMLID_4205_" class="st2" d="M344.21 127.78v-.37l.76-.07c.67-.06.79-.41.79-2.68v-4.96c0-2.29-.12-2.62-.79-2.68l-.76-.07v-.39h7.36c.03.22.04.46.04.69 0 .71-.09 1.46-.22 2.02H351c-.1-1.3-.39-1.95-1.68-1.95-.63 0-1.43.09-1.86.17v4.25h.83c1.63 0 1.87-.12 2.07-1.02h.39l-.14 3.21h-.39l-.1-.61c-.13-.69-.39-.86-1.87-.86h-.78v2.17c0 2.31.21 2.46 1.22 2.46h.83c1.32 0 1.81-.67 2.17-1.94h.41c-.01.81-.18 1.88-.41 2.64h-7.48z"/><path id="XMLID_4203_" class="st2" d="M356.24 118.74l-.11.03.03 5.88c.01 2.41.16 2.63.9 2.68l.79.07v.37h-4.34v-.37l.76-.07c.74-.06.88-.31.9-2.68l.03-6.28c0-.9-.44-1.29-1.26-1.38l-.51-.06v-.39h2.79c.26 0 .6.3.97.71 1.74 1.88 4.38 4.97 6.37 7.4l.09-.03-.06-5.33c-.01-1.96-.2-2.23-.89-2.29l-.73-.07v-.39h4.17v.39l-.67.07c-.75.07-.87.47-.87 2.68v8.11c-.14.06-.45.12-.66.13-2.22-2.92-4.57-5.63-7.7-9.18z"/><path id="XMLID_4200_" class="st2" d="M366.44 127.78v-.35c.94-.2 1.27-.39 1.76-1.54l4.05-9.43c.14-.05.27-.07.36-.07.67 1.75 3.62 9.28 4.23 10.26.36.59.67.68 1.2.74v.39h-4.84v-.37l.61-.03c.71-.05.93-.2.93-.62 0-.29-.13-.75-.44-1.57l-.5-1.31c-.41 0-3.39.03-3.73.03l-.4.96c-.24.6-.58 1.53-.58 1.86 0 .43.33.55 1.45.67v.37h-4.1zm5.58-8.38h-.09c-.5 1.16-1.1 2.61-1.57 3.75l3.15.03-1.49-3.78z"/><path id="XMLID_4198_" class="st2" d="M379.29 127.63c-.11-.57-.2-1.86-.2-2.64h.41c.36 1.48 1.31 2.26 2.76 2.26 1.12 0 2.1-.63 2.1-1.75 0-.96-.55-1.57-1.41-2.19l-1.28-.93c-1.23-.9-2.32-1.83-2.32-3.16 0-1.84 1.5-2.91 3.32-2.91 1.3 0 2.12.37 2.97.4 0 .87-.09 1.95-.28 2.79h-.44c-.09-1.64-.92-2.46-2.2-2.46-1 0-1.82.63-1.82 1.6 0 .9.67 1.47 1.7 2.17l1.12.78c1.73 1.2 2.28 2.07 2.28 3.25 0 2.07-1.86 3.15-3.8 3.15-1.11.01-2.2-.35-2.91-.36z"/><path id="XMLID_4195_" class="st0" d="M44.49 94.27H0V66.3h26.61v18.15h-12v-6.11h5.88v-5.92H6.12v15.74h32.26V58.13H21.99V28.05h22.5v18.78H32.37v-6.11h6.01v-6.56H28.1v17.86h16.39z"/><path id="XMLID_4142_" class="st1" d="M98.77 94.27H54.28V52.02h16.39V34.16H60.39v6.56h6.14v6.11H54.28V28.05h22.5v30.08H60.39v30.03h32.26V72.42H78.28v5.92h5.76v6.11H72.16V66.3h26.61z"/></g></svg>